<svg width="1152" height="138" viewBox="0 0 1152 138" fill="none" xmlns="http://www.w3.org/2000/svg">
<mask id="mask0_848_8581" style="mask-type:alpha" maskUnits="userSpaceOnUse" x="0" y="0" width="1152" height="138">
<rect width="1151.06" height="137.837" transform="matrix(1 0 0 -1 0 137.837)" fill="url(#paint0_linear_848_8581)"/>
</mask>
<g mask="url(#mask0_848_8581)">
<g clip-path="url(#clip0_848_8581)">
<path d="M0.63208 8.17146V26.8011C0.63208 33.5375 5.00094 39.496 11.4258 41.5225L316.795 137.837" stroke="white" stroke-opacity="0.12" stroke-width="0.926259"/>
<path d="M82.7605 8.17146V27.3364C82.7605 33.8126 86.8033 39.6003 92.8842 41.8293L354.772 137.837" stroke="white" stroke-opacity="0.12" stroke-width="0.926259"/>
<path d="M164.889 8.17146V28.0406C164.889 31.0375 165.761 33.9696 167.4 36.4791C169.038 38.9886 171.372 40.9669 174.115 42.1726L391.822 137.837" stroke="white" stroke-opacity="0.12" stroke-width="0.926259"/>
<path d="M247.017 8.17146V28.9782C247.017 31.7454 247.761 34.4617 249.171 36.8428C250.581 39.224 252.605 41.1823 255.032 42.5129L428.873 137.837" stroke="white" stroke-opacity="0.12" stroke-width="0.926259"/>
<path d="M329.146 8.17146V30.2903C329.146 32.7163 329.717 35.1081 330.815 37.2718C331.912 39.4354 333.504 41.31 335.461 42.7435L465.306 137.837" stroke="white" stroke-opacity="0.12" stroke-width="0.926259"/>
<path d="M411.274 8.17146V32.0998C411.274 35.97 412.728 39.6991 415.348 42.5481L502.974 137.837" stroke="white" stroke-opacity="0.12" stroke-width="0.926259"/>
<path d="M493.402 8.17146V34.7916C493.402 36.9841 493.869 39.1516 494.772 41.1495L538.48 137.837" stroke="white" stroke-opacity="0.12" stroke-width="0.926259"/>
<path d="M575.531 8.17146V137.837" stroke="white" stroke-opacity="0.12" stroke-width="0.926259"/>
<path d="M657.659 8.17146V34.7916C657.659 36.9841 657.192 39.1516 656.289 41.1495L612.581 137.837" stroke="white" stroke-opacity="0.12" stroke-width="0.926259"/>
<path d="M739.787 8.17146V32.0998C739.787 35.97 738.333 39.6991 735.713 42.5481L648.087 137.837" stroke="white" stroke-opacity="0.12" stroke-width="0.926259"/>
<path d="M821.916 8.17146V30.2903C821.915 32.7163 821.344 35.1081 820.246 37.2718C819.149 39.4354 817.557 41.31 815.6 42.7435L685.755 137.837" stroke="white" stroke-opacity="0.12" stroke-width="0.926259"/>
<path d="M904.044 8.17146V28.9782C904.044 31.7454 903.3 34.4617 901.89 36.8428C900.48 39.224 898.456 41.1823 896.029 42.5129L722.188 137.837" stroke="white" stroke-opacity="0.12" stroke-width="0.926259"/>
<path d="M986.172 8.17146V28.0406C986.172 31.0375 985.3 33.9696 983.661 36.4791C982.023 38.9886 979.689 40.9669 976.945 42.1726L759.239 137.837" stroke="white" stroke-opacity="0.12" stroke-width="0.926259"/>
<path d="M1068.3 8.17146V27.3364C1068.3 33.8126 1064.26 39.6003 1058.18 41.8293L796.289 137.837" stroke="white" stroke-opacity="0.12" stroke-width="0.926259"/>
<path d="M1150.43 8.17146V26.8011C1150.43 33.5375 1146.06 39.496 1139.64 41.5225L834.266 137.837" stroke="white" stroke-opacity="0.12" stroke-width="0.926259"/>
<path d="M875.33 124.871H275.422" stroke="white" stroke-opacity="0.12" stroke-width="0.926259"/>
<path d="M183.723 95.8506H967.338" stroke="white" stroke-opacity="0.12" stroke-width="0.926259"/>
<path d="M73.189 60.9639H1077.87" stroke="white" stroke-opacity="0.12" stroke-width="0.926259"/>
</g>
<mask id="mask1_848_8581" style="mask-type:alpha" maskUnits="userSpaceOnUse" x="0" y="0" width="1152" height="138">
<rect width="1151.06" height="137.837" transform="matrix(1 0 0 -1 0 137.837)" fill="url(#paint1_linear_848_8581)"/>
</mask>
<g mask="url(#mask1_848_8581)">
<g clip-path="url(#clip1_848_8581)">
<path d="M0.63208 8.17146V26.8011C0.63208 33.5375 5.00094 39.496 11.4258 41.5225L316.795 137.837" stroke="white" stroke-opacity="0.6" stroke-width="0.926259"/>
<path d="M82.7605 8.17146V27.3364C82.7605 33.8126 86.8033 39.6003 92.8842 41.8293L354.772 137.837" stroke="white" stroke-opacity="0.6" stroke-width="0.926259"/>
<path d="M164.889 8.17146V28.0406C164.889 31.0375 165.761 33.9696 167.4 36.4791C169.038 38.9886 171.372 40.9669 174.115 42.1726L391.822 137.837" stroke="white" stroke-opacity="0.6" stroke-width="0.926259"/>
<path d="M247.017 8.17146V28.9782C247.017 31.7454 247.761 34.4617 249.171 36.8428C250.581 39.224 252.605 41.1823 255.032 42.5129L428.873 137.837" stroke="white" stroke-opacity="0.6" stroke-width="0.926259"/>
<path d="M329.146 8.17146V30.2903C329.146 32.7163 329.717 35.1081 330.815 37.2718C331.912 39.4354 333.504 41.31 335.461 42.7435L465.306 137.837" stroke="white" stroke-opacity="0.6" stroke-width="0.926259"/>
<path d="M411.274 8.17146V32.0998C411.274 35.97 412.728 39.6991 415.348 42.5481L502.974 137.837" stroke="white" stroke-opacity="0.6" stroke-width="0.926259"/>
<path d="M493.402 8.17146V34.7916C493.402 36.9841 493.869 39.1516 494.772 41.1495L538.48 137.837" stroke="white" stroke-opacity="0.6" stroke-width="0.926259"/>
<path d="M575.531 8.17146V137.837" stroke="white" stroke-opacity="0.6" stroke-width="0.926259"/>
<path d="M657.659 8.17146V34.7916C657.659 36.9841 657.192 39.1516 656.289 41.1495L612.581 137.837" stroke="white" stroke-opacity="0.6" stroke-width="0.926259"/>
<path d="M739.787 8.17146V32.0998C739.787 35.97 738.333 39.6991 735.713 42.5481L648.087 137.837" stroke="white" stroke-opacity="0.6" stroke-width="0.926259"/>
<path d="M821.916 8.17146V30.2903C821.915 32.7163 821.344 35.1081 820.246 37.2718C819.149 39.4354 817.557 41.31 815.6 42.7435L685.755 137.837" stroke="white" stroke-opacity="0.6" stroke-width="0.926259"/>
<path d="M904.044 8.17146V28.9782C904.044 31.7454 903.3 34.4617 901.89 36.8428C900.48 39.224 898.456 41.1823 896.029 42.5129L722.188 137.837" stroke="white" stroke-opacity="0.6" stroke-width="0.926259"/>
<path d="M986.172 8.17146V28.0406C986.172 31.0375 985.3 33.9696 983.661 36.4791C982.023 38.9886 979.689 40.9669 976.945 42.1726L759.239 137.837" stroke="white" stroke-opacity="0.6" stroke-width="0.926259"/>
<path d="M1068.3 8.17146V27.3364C1068.3 33.8126 1064.26 39.6003 1058.18 41.8293L796.289 137.837" stroke="white" stroke-opacity="0.6" stroke-width="0.926259"/>
<path d="M1150.43 8.17146V26.8011C1150.43 33.5375 1146.06 39.496 1139.64 41.5225L834.266 137.837" stroke="white" stroke-opacity="0.6" stroke-width="0.926259"/>
<path d="M875.33 124.871H275.422" stroke="white" stroke-opacity="0.6" stroke-width="0.926259"/>
<path d="M183.723 95.8506H967.338" stroke="white" stroke-opacity="0.6" stroke-width="0.926259"/>
<path d="M73.189 60.9639H1077.87" stroke="white" stroke-opacity="0.6" stroke-width="0.926259"/>
</g>
</g>
</g>
<defs>
<linearGradient id="paint0_linear_848_8581" x1="575.53" y1="0" x2="575.53" y2="137.837" gradientUnits="userSpaceOnUse">
<stop stop-opacity="0"/>
<stop offset="0.3" stop-color="white"/>
<stop offset="0.7" stop-color="white"/>
<stop offset="1" stop-opacity="0"/>
</linearGradient>
<linearGradient id="paint1_linear_848_8581" x1="575.53" y1="0" x2="575.53" y2="137.837" gradientUnits="userSpaceOnUse">
<stop offset="0.4" stop-opacity="0"/>
<stop offset="0.6" stop-color="white"/>
<stop offset="1" stop-opacity="0"/>
</linearGradient>
<clipPath id="clip0_848_8581">
<rect width="1151.06" height="130.283" fill="white" transform="matrix(1 0 0 -1 0 137.837)"/>
</clipPath>
<clipPath id="clip1_848_8581">
<rect width="1151.06" height="130.283" fill="white" transform="matrix(1 0 0 -1 0 137.837)"/>
</clipPath>
</defs>
</svg>
