<svg width="1152" height="138" viewBox="0 0 1152 138" fill="none" xmlns="http://www.w3.org/2000/svg">
<mask id="mask0_848_8627" style="mask-type:alpha" maskUnits="userSpaceOnUse" x="0" y="0" width="1152" height="138">
<rect width="1151.06" height="137.837" fill="url(#paint0_linear_848_8627)"/>
</mask>
<g mask="url(#mask0_848_8627)">
<g filter="url(#filter0_ddddf_848_8627)">
<rect x="449.099" y="70.166" width="252.85" height="37.7692" rx="18.8846" fill="#F8D0FF"/>
</g>
<g clip-path="url(#clip0_848_8627)">
<path d="M0.63208 129.666V111.036C0.63208 104.3 5.00094 98.3414 11.4258 96.3149L316.795 0" stroke="white" stroke-opacity="0.24" stroke-width="0.926259"/>
<path d="M82.7605 129.666V110.501C82.7605 104.025 86.8033 98.2371 92.8842 96.0081L354.772 0" stroke="white" stroke-opacity="0.24" stroke-width="0.926259"/>
<path d="M164.889 129.666V109.797C164.889 106.8 165.761 103.868 167.4 101.358C169.038 98.8488 171.372 96.8705 174.115 95.6648L391.822 0" stroke="white" stroke-opacity="0.24" stroke-width="0.926259"/>
<path d="M247.017 129.666V108.859C247.017 106.092 247.761 103.376 249.171 100.995C250.581 98.6135 252.605 96.6551 255.032 95.3245L428.873 0" stroke="white" stroke-opacity="0.24" stroke-width="0.926259"/>
<path d="M329.146 129.666V107.547C329.146 105.121 329.717 102.729 330.815 100.566C331.912 98.402 333.504 96.5274 335.461 95.0939L465.306 0" stroke="white" stroke-opacity="0.24" stroke-width="0.926259"/>
<path d="M411.274 129.666V105.738C411.274 101.867 412.728 98.1383 415.348 95.2893L502.974 0" stroke="white" stroke-opacity="0.24" stroke-width="0.926259"/>
<path d="M493.402 129.666V103.046C493.402 100.853 493.869 98.6858 494.772 96.6879L538.48 0" stroke="white" stroke-opacity="0.24" stroke-width="0.926259"/>
<path d="M575.531 129.666V0" stroke="white" stroke-opacity="0.24" stroke-width="0.926259"/>
<path d="M657.659 129.666V103.046C657.659 100.853 657.192 98.6858 656.289 96.6879L612.581 0" stroke="white" stroke-opacity="0.24" stroke-width="0.926259"/>
<path d="M739.787 129.666V105.738C739.787 101.867 738.333 98.1383 735.713 95.2893L648.087 0" stroke="white" stroke-opacity="0.24" stroke-width="0.926259"/>
<path d="M821.916 129.666V107.547C821.915 105.121 821.344 102.729 820.246 100.566C819.149 98.402 817.557 96.5274 815.6 95.0939L685.755 0" stroke="white" stroke-opacity="0.24" stroke-width="0.926259"/>
<path d="M904.044 129.666V108.859C904.044 106.092 903.3 103.376 901.89 100.995C900.48 98.6135 898.456 96.6551 896.029 95.3245L722.188 0" stroke="white" stroke-opacity="0.24" stroke-width="0.926259"/>
<path d="M986.172 129.666V109.797C986.172 106.8 985.3 103.868 983.661 101.358C982.023 98.8488 979.689 96.8705 976.945 95.6648L759.239 0" stroke="white" stroke-opacity="0.24" stroke-width="0.926259"/>
<path d="M1068.3 129.666V110.501C1068.3 104.025 1064.26 98.2371 1058.18 96.0081L796.289 0" stroke="white" stroke-opacity="0.24" stroke-width="0.926259"/>
<path d="M1150.43 129.666V111.036C1150.43 104.3 1146.06 98.3414 1139.64 96.3149L834.266 0" stroke="white" stroke-opacity="0.24" stroke-width="0.926259"/>
<path d="M875.33 12.9666H275.422" stroke="white" stroke-opacity="0.24" stroke-width="0.926259"/>
<path d="M183.723 41.9871H967.338" stroke="white" stroke-opacity="0.24" stroke-width="0.926259"/>
<path d="M73.189 76.8733H1077.87" stroke="white" stroke-opacity="0.24" stroke-width="0.926259"/>
</g>
<mask id="mask1_848_8627" style="mask-type:alpha" maskUnits="userSpaceOnUse" x="0" y="0" width="1152" height="138">
<rect width="1151.06" height="137.837" fill="url(#paint1_linear_848_8627)"/>
</mask>
<g mask="url(#mask1_848_8627)">
<g clip-path="url(#clip1_848_8627)">
<path d="M904.044 129.666V108.859C904.044 106.092 903.3 103.376 901.89 100.995C900.48 98.6135 898.456 96.6551 896.029 95.3245L722.188 0" stroke="white" stroke-width="0.926259"/>
</g>
</g>
<mask id="mask2_848_8627" style="mask-type:alpha" maskUnits="userSpaceOnUse" x="0" y="0" width="1152" height="138">
<rect width="1151.06" height="137.837" fill="url(#paint2_linear_848_8627)"/>
</mask>
<g mask="url(#mask2_848_8627)">
<g clip-path="url(#clip2_848_8627)">
<path d="M164.889 129.666V109.797C164.889 106.8 165.761 103.868 167.4 101.358C169.038 98.8488 171.372 96.8705 174.115 95.6648L391.822 0" stroke="white" stroke-width="0.926259"/>
</g>
</g>
<mask id="mask3_848_8627" style="mask-type:alpha" maskUnits="userSpaceOnUse" x="0" y="0" width="1152" height="138">
<rect width="1151.06" height="137.837" fill="url(#paint3_linear_848_8627)"/>
</mask>
<g mask="url(#mask3_848_8627)">
<g clip-path="url(#clip3_848_8627)">
<path d="M821.916 129.666V107.547C821.915 105.121 821.344 102.729 820.246 100.566C819.149 98.402 817.557 96.5274 815.6 95.0939L685.755 0" stroke="white" stroke-width="0.926259"/>
</g>
</g>
<mask id="mask4_848_8627" style="mask-type:alpha" maskUnits="userSpaceOnUse" x="0" y="0" width="1152" height="138">
<rect width="1151.06" height="137.837" fill="url(#paint4_linear_848_8627)"/>
</mask>
<g mask="url(#mask4_848_8627)">
<g clip-path="url(#clip4_848_8627)">
<path d="M247.017 129.666V108.859C247.017 106.092 247.761 103.376 249.171 100.995C250.581 98.6135 252.605 96.6551 255.032 95.3245L428.873 0" stroke="white" stroke-width="0.926259"/>
</g>
</g>
<mask id="mask5_848_8627" style="mask-type:alpha" maskUnits="userSpaceOnUse" x="0" y="0" width="1152" height="138">
<rect width="1151.06" height="137.837" fill="url(#paint5_linear_848_8627)"/>
</mask>
<g mask="url(#mask5_848_8627)">
<g clip-path="url(#clip5_848_8627)">
<path d="M1068.3 129.666V110.501C1068.3 104.025 1064.26 98.2371 1058.18 96.0081L796.289 0" stroke="white" stroke-width="0.926259"/>
</g>
</g>
<mask id="mask6_848_8627" style="mask-type:alpha" maskUnits="userSpaceOnUse" x="0" y="0" width="1152" height="138">
<rect width="1151.06" height="137.837" fill="url(#paint6_linear_848_8627)"/>
</mask>
<g mask="url(#mask6_848_8627)">
<g clip-path="url(#clip6_848_8627)">
<path d="M575.531 129.666V0" stroke="white" stroke-width="0.926259"/>
</g>
</g>
<mask id="mask7_848_8627" style="mask-type:alpha" maskUnits="userSpaceOnUse" x="0" y="0" width="1152" height="138">
<rect width="1151.06" height="137.837" fill="url(#paint7_linear_848_8627)"/>
</mask>
<g mask="url(#mask7_848_8627)">
<g clip-path="url(#clip7_848_8627)">
<path d="M657.659 129.666V103.046C657.659 100.853 657.192 98.6858 656.289 96.6879L612.581 0" stroke="white" stroke-width="0.926259"/>
</g>
</g>
<mask id="mask8_848_8627" style="mask-type:alpha" maskUnits="userSpaceOnUse" x="0" y="0" width="1152" height="138">
<rect width="1151.06" height="137.837" fill="url(#paint8_linear_848_8627)"/>
</mask>
<g mask="url(#mask8_848_8627)">
<g clip-path="url(#clip8_848_8627)">
<path d="M1150.43 129.666V111.036C1150.43 104.3 1146.06 98.3414 1139.64 96.3149L834.266 0" stroke="white" stroke-width="0.926259"/>
</g>
</g>
<mask id="mask9_848_8627" style="mask-type:alpha" maskUnits="userSpaceOnUse" x="0" y="0" width="1152" height="138">
<rect width="1151.06" height="137.837" fill="url(#paint9_linear_848_8627)"/>
</mask>
<g mask="url(#mask9_848_8627)">
<g clip-path="url(#clip9_848_8627)">
<path d="M82.7605 129.666V110.501C82.7605 104.025 86.8033 98.2371 92.8842 96.0081L354.772 0" stroke="white" stroke-width="0.926259"/>
</g>
</g>
<mask id="mask10_848_8627" style="mask-type:alpha" maskUnits="userSpaceOnUse" x="0" y="0" width="1152" height="138">
<rect width="1151.06" height="137.837" fill="url(#paint10_linear_848_8627)"/>
</mask>
<g mask="url(#mask10_848_8627)">
<g clip-path="url(#clip10_848_8627)">
<path d="M411.274 129.666V105.738C411.274 101.867 412.728 98.1383 415.348 95.2893L502.974 0" stroke="white" stroke-width="0.926259"/>
</g>
</g>
<mask id="mask11_848_8627" style="mask-type:alpha" maskUnits="userSpaceOnUse" x="0" y="0" width="1152" height="138">
<rect width="1151.06" height="137.837" fill="url(#paint11_linear_848_8627)"/>
</mask>
<g mask="url(#mask11_848_8627)">
<g clip-path="url(#clip11_848_8627)">
<path d="M986.172 129.666V109.797C986.172 106.8 985.3 103.868 983.661 101.358C982.023 98.8488 979.689 96.8705 976.945 95.6648L759.239 0" stroke="white" stroke-width="0.926259"/>
</g>
</g>
<mask id="mask12_848_8627" style="mask-type:alpha" maskUnits="userSpaceOnUse" x="0" y="0" width="1152" height="138">
<rect width="1151.06" height="137.837" fill="url(#paint12_linear_848_8627)"/>
</mask>
<g mask="url(#mask12_848_8627)">
<g clip-path="url(#clip12_848_8627)">
<path d="M329.146 129.666V107.547C329.146 105.121 329.717 102.729 330.815 100.566C331.912 98.402 333.504 96.5274 335.461 95.0939L465.306 0" stroke="white" stroke-width="0.926259"/>
</g>
</g>
<mask id="mask13_848_8627" style="mask-type:alpha" maskUnits="userSpaceOnUse" x="0" y="0" width="1152" height="138">
<rect width="1151.06" height="137.837" fill="url(#paint13_linear_848_8627)"/>
</mask>
<g mask="url(#mask13_848_8627)">
<g clip-path="url(#clip13_848_8627)">
<path d="M493.402 129.666V103.046C493.402 100.853 493.869 98.6858 494.772 96.6879L538.48 0" stroke="white" stroke-width="0.926259"/>
</g>
</g>
<mask id="mask14_848_8627" style="mask-type:alpha" maskUnits="userSpaceOnUse" x="0" y="0" width="1152" height="138">
<rect width="1151.06" height="137.837" fill="url(#paint14_linear_848_8627)"/>
</mask>
<g mask="url(#mask14_848_8627)">
<g clip-path="url(#clip14_848_8627)">
<path d="M739.787 129.666V105.738C739.787 101.867 738.333 98.1383 735.713 95.2893L648.087 0" stroke="white" stroke-width="0.926259"/>
</g>
</g>
<mask id="mask15_848_8627" style="mask-type:alpha" maskUnits="userSpaceOnUse" x="0" y="0" width="1152" height="138">
<rect width="1151.06" height="137.837" fill="url(#paint15_linear_848_8627)"/>
</mask>
<g mask="url(#mask15_848_8627)">
<g clip-path="url(#clip15_848_8627)">
<path d="M0.63208 129.666V111.036C0.63208 104.3 5.00094 98.3414 11.4258 96.3149L316.795 0" stroke="white" stroke-width="0.926259"/>
</g>
</g>
</g>
<defs>
<filter id="filter0_ddddf_848_8627" x="103.781" y="-275.152" width="943.487" height="728.406" filterUnits="userSpaceOnUse" color-interpolation-filters="sRGB">
<feFlood flood-opacity="0" result="BackgroundImageFix"/>
<feColorMatrix in="SourceAlpha" type="matrix" values="0 0 0 0 0 0 0 0 0 0 0 0 0 0 0 0 0 0 127 0" result="hardAlpha"/>
<feMorphology radius="230.212" operator="dilate" in="SourceAlpha" result="effect1_dropShadow_848_8627"/>
<feOffset/>
<feGaussianBlur stdDeviation="57.553"/>
<feComposite in2="hardAlpha" operator="out"/>
<feColorMatrix type="matrix" values="0 0 0 0 0.352181 0 0 0 0 0.141646 0 0 0 0 0.386443 0 0 0 1 0"/>
<feBlend mode="normal" in2="BackgroundImageFix" result="effect1_dropShadow_848_8627"/>
<feColorMatrix in="SourceAlpha" type="matrix" values="0 0 0 0 0 0 0 0 0 0 0 0 0 0 0 0 0 0 127 0" result="hardAlpha"/>
<feMorphology radius="143.883" operator="dilate" in="SourceAlpha" result="effect2_dropShadow_848_8627"/>
<feOffset/>
<feGaussianBlur stdDeviation="43.1648"/>
<feComposite in2="hardAlpha" operator="out"/>
<feColorMatrix type="matrix" values="0 0 0 0 0.665352 0 0 0 0 0.301929 0 0 0 0 0.724495 0 0 0 1 0"/>
<feBlend mode="normal" in2="effect1_dropShadow_848_8627" result="effect2_dropShadow_848_8627"/>
<feColorMatrix in="SourceAlpha" type="matrix" values="0 0 0 0 0 0 0 0 0 0 0 0 0 0 0 0 0 0 127 0" result="hardAlpha"/>
<feMorphology radius="86.3296" operator="dilate" in="SourceAlpha" result="effect3_dropShadow_848_8627"/>
<feOffset/>
<feGaussianBlur stdDeviation="21.5824"/>
<feComposite in2="hardAlpha" operator="out"/>
<feColorMatrix type="matrix" values="0 0 0 0 0.94582 0 0 0 0 0.612895 0 0 0 0 1 0 0 0 1 0"/>
<feBlend mode="normal" in2="effect2_dropShadow_848_8627" result="effect3_dropShadow_848_8627"/>
<feColorMatrix in="SourceAlpha" type="matrix" values="0 0 0 0 0 0 0 0 0 0 0 0 0 0 0 0 0 0 127 0" result="hardAlpha"/>
<feMorphology radius="28.7765" operator="dilate" in="SourceAlpha" result="effect4_dropShadow_848_8627"/>
<feOffset/>
<feGaussianBlur stdDeviation="7.19413"/>
<feComposite in2="hardAlpha" operator="out"/>
<feColorMatrix type="matrix" values="0 0 0 0 0.9551 0 0 0 0 0.6792 0 0 0 0 1 0 0 0 1 0"/>
<feBlend mode="normal" in2="effect3_dropShadow_848_8627" result="effect4_dropShadow_848_8627"/>
<feBlend mode="normal" in="SourceGraphic" in2="effect4_dropShadow_848_8627" result="shape"/>
<feGaussianBlur stdDeviation="14.3883" result="effect5_foregroundBlur_848_8627"/>
</filter>
<linearGradient id="paint0_linear_848_8627" x1="575.53" y1="0" x2="575.53" y2="137.837" gradientUnits="userSpaceOnUse">
<stop stop-opacity="0"/>
<stop offset="0.3" stop-color="white"/>
<stop offset="0.7" stop-color="white"/>
<stop offset="1" stop-opacity="0"/>
</linearGradient>
<linearGradient id="paint1_linear_848_8627" x1="575.53" y1="0" x2="575.53" y2="137.837" gradientUnits="userSpaceOnUse">
<stop offset="0.4" stop-opacity="0"/>
<stop offset="0.6" stop-color="white"/>
<stop offset="1" stop-opacity="0"/>
</linearGradient>
<linearGradient id="paint2_linear_848_8627" x1="575.53" y1="0" x2="575.53" y2="137.837" gradientUnits="userSpaceOnUse">
<stop offset="0.4" stop-opacity="0"/>
<stop offset="0.6" stop-color="white"/>
<stop offset="1" stop-opacity="0"/>
</linearGradient>
<linearGradient id="paint3_linear_848_8627" x1="575.53" y1="0" x2="575.53" y2="137.837" gradientUnits="userSpaceOnUse">
<stop offset="0.4" stop-opacity="0"/>
<stop offset="0.6" stop-color="white"/>
<stop offset="1" stop-opacity="0"/>
</linearGradient>
<linearGradient id="paint4_linear_848_8627" x1="575.53" y1="0" x2="575.53" y2="137.837" gradientUnits="userSpaceOnUse">
<stop offset="0.4" stop-opacity="0"/>
<stop offset="0.6" stop-color="white"/>
<stop offset="1" stop-opacity="0"/>
</linearGradient>
<linearGradient id="paint5_linear_848_8627" x1="575.53" y1="0" x2="575.53" y2="137.837" gradientUnits="userSpaceOnUse">
<stop offset="0.4" stop-opacity="0"/>
<stop offset="0.6" stop-color="white"/>
<stop offset="1" stop-opacity="0"/>
</linearGradient>
<linearGradient id="paint6_linear_848_8627" x1="575.53" y1="0" x2="575.53" y2="137.837" gradientUnits="userSpaceOnUse">
<stop offset="0.4" stop-opacity="0"/>
<stop offset="0.6" stop-color="white"/>
<stop offset="1" stop-opacity="0"/>
</linearGradient>
<linearGradient id="paint7_linear_848_8627" x1="575.53" y1="0" x2="575.53" y2="137.837" gradientUnits="userSpaceOnUse">
<stop offset="0.4" stop-opacity="0"/>
<stop offset="0.6" stop-color="white"/>
<stop offset="1" stop-opacity="0"/>
</linearGradient>
<linearGradient id="paint8_linear_848_8627" x1="575.53" y1="0" x2="575.53" y2="137.837" gradientUnits="userSpaceOnUse">
<stop offset="0.4" stop-opacity="0"/>
<stop offset="0.6" stop-color="white"/>
<stop offset="1" stop-opacity="0"/>
</linearGradient>
<linearGradient id="paint9_linear_848_8627" x1="575.53" y1="0" x2="575.53" y2="137.837" gradientUnits="userSpaceOnUse">
<stop offset="0.4" stop-opacity="0"/>
<stop offset="0.6" stop-color="white"/>
<stop offset="1" stop-opacity="0"/>
</linearGradient>
<linearGradient id="paint10_linear_848_8627" x1="575.53" y1="0" x2="575.53" y2="137.837" gradientUnits="userSpaceOnUse">
<stop offset="0.4" stop-opacity="0"/>
<stop offset="0.6" stop-color="white"/>
<stop offset="1" stop-opacity="0"/>
</linearGradient>
<linearGradient id="paint11_linear_848_8627" x1="575.53" y1="0" x2="575.53" y2="137.837" gradientUnits="userSpaceOnUse">
<stop offset="0.4" stop-opacity="0"/>
<stop offset="0.6" stop-color="white"/>
<stop offset="1" stop-opacity="0"/>
</linearGradient>
<linearGradient id="paint12_linear_848_8627" x1="575.53" y1="0" x2="575.53" y2="137.837" gradientUnits="userSpaceOnUse">
<stop offset="0.4" stop-opacity="0"/>
<stop offset="0.6" stop-color="white"/>
<stop offset="1" stop-opacity="0"/>
</linearGradient>
<linearGradient id="paint13_linear_848_8627" x1="575.53" y1="0" x2="575.53" y2="137.837" gradientUnits="userSpaceOnUse">
<stop offset="0.4" stop-opacity="0"/>
<stop offset="0.6" stop-color="white"/>
<stop offset="1" stop-opacity="0"/>
</linearGradient>
<linearGradient id="paint14_linear_848_8627" x1="575.53" y1="0" x2="575.53" y2="137.837" gradientUnits="userSpaceOnUse">
<stop offset="0.4" stop-opacity="0"/>
<stop offset="0.6" stop-color="white"/>
<stop offset="1" stop-opacity="0"/>
</linearGradient>
<linearGradient id="paint15_linear_848_8627" x1="575.53" y1="0" x2="575.53" y2="137.837" gradientUnits="userSpaceOnUse">
<stop offset="0.4" stop-opacity="0"/>
<stop offset="0.6" stop-color="white"/>
<stop offset="1" stop-opacity="0"/>
</linearGradient>
<clipPath id="clip0_848_8627">
<rect width="1151.06" height="130.283" fill="white"/>
</clipPath>
<clipPath id="clip1_848_8627">
<rect width="1151.06" height="130.283" fill="white"/>
</clipPath>
<clipPath id="clip2_848_8627">
<rect width="1151.06" height="130.283" fill="white"/>
</clipPath>
<clipPath id="clip3_848_8627">
<rect width="1151.06" height="130.283" fill="white"/>
</clipPath>
<clipPath id="clip4_848_8627">
<rect width="1151.06" height="130.283" fill="white"/>
</clipPath>
<clipPath id="clip5_848_8627">
<rect width="1151.06" height="130.283" fill="white"/>
</clipPath>
<clipPath id="clip6_848_8627">
<rect width="1151.06" height="130.283" fill="white"/>
</clipPath>
<clipPath id="clip7_848_8627">
<rect width="1151.06" height="130.283" fill="white"/>
</clipPath>
<clipPath id="clip8_848_8627">
<rect width="1151.06" height="130.283" fill="white"/>
</clipPath>
<clipPath id="clip9_848_8627">
<rect width="1151.06" height="130.283" fill="white"/>
</clipPath>
<clipPath id="clip10_848_8627">
<rect width="1151.06" height="130.283" fill="white"/>
</clipPath>
<clipPath id="clip11_848_8627">
<rect width="1151.06" height="130.283" fill="white"/>
</clipPath>
<clipPath id="clip12_848_8627">
<rect width="1151.06" height="130.283" fill="white"/>
</clipPath>
<clipPath id="clip13_848_8627">
<rect width="1151.06" height="130.283" fill="white"/>
</clipPath>
<clipPath id="clip14_848_8627">
<rect width="1151.06" height="130.283" fill="white"/>
</clipPath>
<clipPath id="clip15_848_8627">
<rect width="1151.06" height="130.283" fill="white"/>
</clipPath>
</defs>
</svg>
