<svg width="1162" height="122" viewBox="0 0 1162 122" fill="none" xmlns="http://www.w3.org/2000/svg">
<mask id="mask0_2648_4247" style="mask-type:alpha" maskUnits="userSpaceOnUse" x="0" y="-16" width="1162" height="138">
<rect width="1161.06" height="137.837" transform="matrix(1 0 0 -1 0 122)" fill="url(#paint0_linear_2648_4247)"/>
</mask>
<g mask="url(#mask0_2648_4247)">
<g filter="url(#filter0_ddddf_2648_4247)">
<rect width="255.047" height="37.7692" rx="18.8846" transform="matrix(1 0 0 -1 453.001 51.834)" fill="#F8D0FF" fill-opacity="0.81" shape-rendering="crispEdges"/>
</g>
<g clip-path="url(#clip0_2648_4247)">
<path d="M0.637695 -7.66594V10.9637C0.637695 17.7001 5.04451 23.6586 11.5252 25.6851L319.548 122" stroke="white" stroke-opacity="0.24" stroke-width="0.926259"/>
<path d="M83.4795 -7.66594V11.499C83.4795 17.9752 87.5574 23.7629 93.6912 25.9919L357.854 122" stroke="white" stroke-opacity="0.24" stroke-width="0.926259"/>
<path d="M166.321 -7.66594V12.2032C166.321 15.2001 167.201 18.1322 168.854 20.6417C170.507 23.1512 172.86 25.1295 175.628 26.3352L395.226 122" stroke="white" stroke-opacity="0.24" stroke-width="0.926259"/>
<path d="M249.163 -7.66594V13.1408C249.163 15.908 249.914 18.6243 251.336 21.0054C252.758 23.3865 254.8 25.3449 257.247 26.6755L432.599 122" stroke="white" stroke-opacity="0.24" stroke-width="0.926259"/>
<path d="M332.005 -7.66594V14.4529C332.005 16.8789 332.582 19.2707 333.689 21.4344C334.796 23.598 336.401 25.4726 338.376 26.9061L469.348 122" stroke="white" stroke-opacity="0.24" stroke-width="0.926259"/>
<path d="M414.847 -7.66594V16.2624C414.847 20.1326 416.313 23.8617 418.956 26.7107L507.343 122" stroke="white" stroke-opacity="0.24" stroke-width="0.926259"/>
<path d="M497.688 -7.66594V18.9542C497.688 21.1467 498.16 23.3142 499.071 25.3121L543.158 122" stroke="white" stroke-opacity="0.24" stroke-width="0.926259"/>
<path d="M580.53 -7.66594V122" stroke="white" stroke-opacity="0.24" stroke-width="0.926259"/>
<path d="M663.372 -7.66594V18.9542C663.372 21.1467 662.901 23.3142 661.99 25.3121L617.902 122" stroke="white" stroke-opacity="0.24" stroke-width="0.926259"/>
<path d="M746.214 -7.66594V16.2624C746.214 20.1326 744.748 23.8617 742.105 26.7107L653.718 122" stroke="white" stroke-opacity="0.24" stroke-width="0.926259"/>
<path d="M829.056 -7.66594V14.4529C829.056 16.8789 828.479 19.2707 827.372 21.4344C826.265 23.598 824.66 25.4726 822.685 26.9061L691.713 122" stroke="white" stroke-opacity="0.24" stroke-width="0.926259"/>
<path d="M911.898 -7.66594V13.1408C911.898 15.908 911.148 18.6243 909.726 21.0054C908.304 23.3865 906.262 25.3449 903.814 26.6755L728.463 122" stroke="white" stroke-opacity="0.24" stroke-width="0.926259"/>
<path d="M994.74 -7.66594V12.2032C994.74 15.2001 993.86 18.1322 992.207 20.6417C990.555 23.1512 988.201 25.1295 985.433 26.3352L765.835 122" stroke="white" stroke-opacity="0.24" stroke-width="0.926259"/>
<path d="M1077.58 -7.66594V11.499C1077.58 17.9752 1073.5 23.7629 1067.37 25.9919L803.207 122" stroke="white" stroke-opacity="0.24" stroke-width="0.926259"/>
<path d="M1160.42 -7.66594V10.9637C1160.42 17.7001 1156.02 23.6586 1149.54 25.6851L841.514 122" stroke="white" stroke-opacity="0.24" stroke-width="0.926259"/>
<path d="M882.935 109.033H277.815" stroke="white" stroke-opacity="0.24" stroke-width="0.926259"/>
<path d="M185.319 80.0129H975.743" stroke="white" stroke-opacity="0.24" stroke-width="0.926259"/>
<path d="M73.8252 45.1266H1087.24" stroke="white" stroke-opacity="0.24" stroke-width="0.926259"/>
</g>
<mask id="mask1_2648_4247" style="mask-type:alpha" maskUnits="userSpaceOnUse" x="0" y="-16" width="1162" height="138">
<rect width="1161.06" height="137.837" transform="matrix(1 0 0 -1 0 122)" fill="url(#paint1_linear_2648_4247)"/>
</mask>
<g mask="url(#mask1_2648_4247)">
<g clip-path="url(#clip1_2648_4247)">
<path d="M911.897 -7.66594V13.1408C911.897 15.908 911.147 18.6243 909.725 21.0054C908.303 23.3865 906.261 25.3449 903.813 26.6755L728.462 122" stroke="white" stroke-width="0.926259"/>
</g>
</g>
<mask id="mask2_2648_4247" style="mask-type:alpha" maskUnits="userSpaceOnUse" x="0" y="-16" width="1162" height="138">
<rect width="1161.06" height="137.837" transform="matrix(1 0 0 -1 0 122)" fill="url(#paint2_linear_2648_4247)"/>
</mask>
<g mask="url(#mask2_2648_4247)">
<g clip-path="url(#clip2_2648_4247)">
<path d="M166.321 -7.66594V12.2032C166.321 15.2001 167.201 18.1322 168.854 20.6417C170.507 23.1512 172.86 25.1295 175.628 26.3352L395.226 122" stroke="white" stroke-width="0.926259"/>
</g>
</g>
<mask id="mask3_2648_4247" style="mask-type:alpha" maskUnits="userSpaceOnUse" x="0" y="-16" width="1162" height="138">
<rect width="1161.06" height="137.837" transform="matrix(1 0 0 -1 0 122)" fill="url(#paint3_linear_2648_4247)"/>
</mask>
<g mask="url(#mask3_2648_4247)">
<g clip-path="url(#clip3_2648_4247)">
<path d="M829.056 -7.66594V14.4529C829.056 16.8789 828.479 19.2707 827.372 21.4344C826.265 23.598 824.66 25.4726 822.685 26.9061L691.713 122" stroke="white" stroke-width="0.926259"/>
</g>
</g>
<mask id="mask4_2648_4247" style="mask-type:alpha" maskUnits="userSpaceOnUse" x="0" y="-16" width="1162" height="138">
<rect width="1161.06" height="137.837" transform="matrix(1 0 0 -1 0 122)" fill="url(#paint4_linear_2648_4247)"/>
</mask>
<g mask="url(#mask4_2648_4247)">
<g clip-path="url(#clip4_2648_4247)">
<path d="M249.163 -7.66594V13.1408C249.163 15.908 249.914 18.6243 251.336 21.0054C252.758 23.3865 254.8 25.3449 257.247 26.6755L432.599 122" stroke="white" stroke-width="0.926259"/>
</g>
</g>
<mask id="mask5_2648_4247" style="mask-type:alpha" maskUnits="userSpaceOnUse" x="0" y="-16" width="1162" height="138">
<rect width="1161.06" height="137.837" transform="matrix(1 0 0 -1 0 122)" fill="url(#paint5_linear_2648_4247)"/>
</mask>
<g mask="url(#mask5_2648_4247)">
<g clip-path="url(#clip5_2648_4247)">
<path d="M1077.58 -7.66594V11.499C1077.58 17.9752 1073.5 23.7629 1067.37 25.9919L803.207 122" stroke="white" stroke-width="0.926259"/>
</g>
</g>
<mask id="mask6_2648_4247" style="mask-type:alpha" maskUnits="userSpaceOnUse" x="0" y="-16" width="1162" height="138">
<rect width="1161.06" height="137.837" transform="matrix(1 0 0 -1 0 122)" fill="url(#paint6_linear_2648_4247)"/>
</mask>
<g mask="url(#mask6_2648_4247)">
<g clip-path="url(#clip6_2648_4247)">
<path d="M580.53 -7.66594V122" stroke="white" stroke-width="0.926259"/>
</g>
</g>
<mask id="mask7_2648_4247" style="mask-type:alpha" maskUnits="userSpaceOnUse" x="0" y="-16" width="1162" height="138">
<rect width="1161.06" height="137.837" transform="matrix(1 0 0 -1 0 122)" fill="url(#paint7_linear_2648_4247)"/>
</mask>
<g mask="url(#mask7_2648_4247)">
<g clip-path="url(#clip7_2648_4247)">
<path d="M663.372 -7.66594V18.9542C663.372 21.1467 662.901 23.3142 661.99 25.3121L617.902 122" stroke="white" stroke-width="0.926259"/>
</g>
</g>
<mask id="mask8_2648_4247" style="mask-type:alpha" maskUnits="userSpaceOnUse" x="0" y="-16" width="1162" height="138">
<rect width="1161.06" height="137.837" transform="matrix(1 0 0 -1 0 122)" fill="url(#paint8_linear_2648_4247)"/>
</mask>
<g mask="url(#mask8_2648_4247)">
<g clip-path="url(#clip8_2648_4247)">
<path d="M1160.42 -7.66594V10.9637C1160.42 17.7001 1156.02 23.6586 1149.54 25.6851L841.514 122" stroke="white" stroke-width="0.926259"/>
</g>
</g>
<mask id="mask9_2648_4247" style="mask-type:alpha" maskUnits="userSpaceOnUse" x="0" y="-16" width="1162" height="138">
<rect width="1161.06" height="137.837" transform="matrix(1 0 0 -1 0 122)" fill="url(#paint9_linear_2648_4247)"/>
</mask>
<g mask="url(#mask9_2648_4247)">
<g clip-path="url(#clip9_2648_4247)">
<path d="M83.4795 -7.66594V11.499C83.4795 17.9752 87.5574 23.7629 93.6912 25.9919L357.854 122" stroke="white" stroke-width="0.926259"/>
</g>
</g>
<mask id="mask10_2648_4247" style="mask-type:alpha" maskUnits="userSpaceOnUse" x="0" y="-16" width="1162" height="138">
<rect width="1161.06" height="137.837" transform="matrix(1 0 0 -1 0 122)" fill="url(#paint10_linear_2648_4247)"/>
</mask>
<g mask="url(#mask10_2648_4247)">
<g clip-path="url(#clip10_2648_4247)">
<path d="M414.847 -7.66594V16.2624C414.847 20.1326 416.313 23.8617 418.956 26.7107L507.343 122" stroke="white" stroke-width="0.926259"/>
</g>
</g>
<mask id="mask11_2648_4247" style="mask-type:alpha" maskUnits="userSpaceOnUse" x="0" y="-16" width="1162" height="138">
<rect width="1161.06" height="137.837" transform="matrix(1 0 0 -1 0 122)" fill="url(#paint11_linear_2648_4247)"/>
</mask>
<g mask="url(#mask11_2648_4247)">
<g clip-path="url(#clip11_2648_4247)">
<path d="M994.74 -7.66594V12.2032C994.74 15.2001 993.86 18.1322 992.207 20.6417C990.555 23.1512 988.201 25.1295 985.433 26.3352L765.835 122" stroke="white" stroke-width="0.926259"/>
</g>
</g>
<mask id="mask12_2648_4247" style="mask-type:alpha" maskUnits="userSpaceOnUse" x="0" y="-16" width="1162" height="138">
<rect width="1161.06" height="137.837" transform="matrix(1 0 0 -1 0 122)" fill="url(#paint12_linear_2648_4247)"/>
</mask>
<g mask="url(#mask12_2648_4247)">
<g clip-path="url(#clip12_2648_4247)">
<path d="M332.005 -7.66594V14.4529C332.005 16.8789 332.582 19.2707 333.689 21.4344C334.796 23.598 336.401 25.4726 338.376 26.9061L469.348 122" stroke="white" stroke-width="0.926259"/>
</g>
</g>
<mask id="mask13_2648_4247" style="mask-type:alpha" maskUnits="userSpaceOnUse" x="0" y="-16" width="1162" height="138">
<rect width="1161.06" height="137.837" transform="matrix(1 0 0 -1 0 122)" fill="url(#paint13_linear_2648_4247)"/>
</mask>
<g mask="url(#mask13_2648_4247)">
<g clip-path="url(#clip13_2648_4247)">
<path d="M497.688 -7.66594V18.9542C497.688 21.1467 498.16 23.3142 499.071 25.3121L543.158 122" stroke="white" stroke-width="0.926259"/>
</g>
</g>
<mask id="mask14_2648_4247" style="mask-type:alpha" maskUnits="userSpaceOnUse" x="0" y="-16" width="1162" height="138">
<rect width="1161.06" height="137.837" transform="matrix(1 0 0 -1 0 122)" fill="url(#paint14_linear_2648_4247)"/>
</mask>
<g mask="url(#mask14_2648_4247)">
<g clip-path="url(#clip14_2648_4247)">
<path d="M746.214 -7.66594V16.2624C746.214 20.1326 744.748 23.8617 742.105 26.7107L653.718 122" stroke="white" stroke-width="0.926259"/>
</g>
</g>
<mask id="mask15_2648_4247" style="mask-type:alpha" maskUnits="userSpaceOnUse" x="0" y="-16" width="1162" height="138">
<rect width="1161.06" height="137.837" transform="matrix(1 0 0 -1 0 122)" fill="url(#paint15_linear_2648_4247)"/>
</mask>
<g mask="url(#mask15_2648_4247)">
<g clip-path="url(#clip15_2648_4247)">
<path d="M0.637695 -7.66594V10.9637C0.637695 17.7001 5.04451 23.6586 11.5252 25.6851L319.548 122" stroke="white" stroke-width="0.926259"/>
</g>
</g>
</g>
<defs>
<filter id="filter0_ddddf_2648_4247" x="107.683" y="-331.253" width="945.683" height="728.406" filterUnits="userSpaceOnUse" color-interpolation-filters="sRGB">
<feFlood flood-opacity="0" result="BackgroundImageFix"/>
<feColorMatrix in="SourceAlpha" type="matrix" values="0 0 0 0 0 0 0 0 0 0 0 0 0 0 0 0 0 0 127 0" result="hardAlpha"/>
<feMorphology radius="230.212" operator="dilate" in="SourceAlpha" result="effect1_dropShadow_2648_4247"/>
<feOffset/>
<feGaussianBlur stdDeviation="57.553"/>
<feComposite in2="hardAlpha" operator="out"/>
<feColorMatrix type="matrix" values="0 0 0 0 0.352181 0 0 0 0 0.141646 0 0 0 0 0.386443 0 0 0 0.66 0"/>
<feBlend mode="normal" in2="BackgroundImageFix" result="effect1_dropShadow_2648_4247"/>
<feColorMatrix in="SourceAlpha" type="matrix" values="0 0 0 0 0 0 0 0 0 0 0 0 0 0 0 0 0 0 127 0" result="hardAlpha"/>
<feMorphology radius="143.883" operator="dilate" in="SourceAlpha" result="effect2_dropShadow_2648_4247"/>
<feOffset/>
<feGaussianBlur stdDeviation="43.1648"/>
<feComposite in2="hardAlpha" operator="out"/>
<feColorMatrix type="matrix" values="0 0 0 0 0.665352 0 0 0 0 0.301929 0 0 0 0 0.724495 0 0 0 0.41 0"/>
<feBlend mode="normal" in2="effect1_dropShadow_2648_4247" result="effect2_dropShadow_2648_4247"/>
<feColorMatrix in="SourceAlpha" type="matrix" values="0 0 0 0 0 0 0 0 0 0 0 0 0 0 0 0 0 0 127 0" result="hardAlpha"/>
<feMorphology radius="86.3296" operator="dilate" in="SourceAlpha" result="effect3_dropShadow_2648_4247"/>
<feOffset/>
<feGaussianBlur stdDeviation="21.5824"/>
<feComposite in2="hardAlpha" operator="out"/>
<feColorMatrix type="matrix" values="0 0 0 0 0.94582 0 0 0 0 0.612895 0 0 0 0 1 0 0 0 0.31 0"/>
<feBlend mode="normal" in2="effect2_dropShadow_2648_4247" result="effect3_dropShadow_2648_4247"/>
<feColorMatrix in="SourceAlpha" type="matrix" values="0 0 0 0 0 0 0 0 0 0 0 0 0 0 0 0 0 0 127 0" result="hardAlpha"/>
<feMorphology radius="28.7765" operator="dilate" in="SourceAlpha" result="effect4_dropShadow_2648_4247"/>
<feOffset/>
<feGaussianBlur stdDeviation="7.19413"/>
<feComposite in2="hardAlpha" operator="out"/>
<feColorMatrix type="matrix" values="0 0 0 0 0.9551 0 0 0 0 0.6792 0 0 0 0 1 0 0 0 0.54 0"/>
<feBlend mode="normal" in2="effect3_dropShadow_2648_4247" result="effect4_dropShadow_2648_4247"/>
<feBlend mode="normal" in="SourceGraphic" in2="effect4_dropShadow_2648_4247" result="shape"/>
<feGaussianBlur stdDeviation="19.25" result="effect5_foregroundBlur_2648_4247"/>
</filter>
<linearGradient id="paint0_linear_2648_4247" x1="580.53" y1="0" x2="580.53" y2="137.837" gradientUnits="userSpaceOnUse">
<stop stop-opacity="0"/>
<stop offset="0.3" stop-color="white"/>
<stop offset="0.7" stop-color="white"/>
<stop offset="1" stop-opacity="0"/>
</linearGradient>
<linearGradient id="paint1_linear_2648_4247" x1="580.53" y1="0" x2="580.53" y2="137.837" gradientUnits="userSpaceOnUse">
<stop offset="0.4" stop-opacity="0"/>
<stop offset="0.6" stop-color="white"/>
<stop offset="1" stop-opacity="0"/>
</linearGradient>
<linearGradient id="paint2_linear_2648_4247" x1="580.53" y1="0" x2="580.53" y2="137.837" gradientUnits="userSpaceOnUse">
<stop offset="0.4" stop-opacity="0"/>
<stop offset="0.6" stop-color="white"/>
<stop offset="1" stop-opacity="0"/>
</linearGradient>
<linearGradient id="paint3_linear_2648_4247" x1="580.53" y1="0" x2="580.53" y2="137.837" gradientUnits="userSpaceOnUse">
<stop offset="0.4" stop-opacity="0"/>
<stop offset="0.6" stop-color="white"/>
<stop offset="1" stop-opacity="0"/>
</linearGradient>
<linearGradient id="paint4_linear_2648_4247" x1="580.53" y1="0" x2="580.53" y2="137.837" gradientUnits="userSpaceOnUse">
<stop offset="0.4" stop-opacity="0"/>
<stop offset="0.6" stop-color="white"/>
<stop offset="1" stop-opacity="0"/>
</linearGradient>
<linearGradient id="paint5_linear_2648_4247" x1="580.53" y1="0" x2="580.53" y2="137.837" gradientUnits="userSpaceOnUse">
<stop offset="0.4" stop-opacity="0"/>
<stop offset="0.6" stop-color="white"/>
<stop offset="1" stop-opacity="0"/>
</linearGradient>
<linearGradient id="paint6_linear_2648_4247" x1="580.53" y1="0" x2="580.53" y2="137.837" gradientUnits="userSpaceOnUse">
<stop offset="0.4" stop-opacity="0"/>
<stop offset="0.6" stop-color="white"/>
<stop offset="1" stop-opacity="0"/>
</linearGradient>
<linearGradient id="paint7_linear_2648_4247" x1="580.53" y1="0" x2="580.53" y2="137.837" gradientUnits="userSpaceOnUse">
<stop offset="0.4" stop-opacity="0"/>
<stop offset="0.6" stop-color="white"/>
<stop offset="1" stop-opacity="0"/>
</linearGradient>
<linearGradient id="paint8_linear_2648_4247" x1="580.53" y1="0" x2="580.53" y2="137.837" gradientUnits="userSpaceOnUse">
<stop offset="0.4" stop-opacity="0"/>
<stop offset="0.6" stop-color="white"/>
<stop offset="1" stop-opacity="0"/>
</linearGradient>
<linearGradient id="paint9_linear_2648_4247" x1="580.53" y1="0" x2="580.53" y2="137.837" gradientUnits="userSpaceOnUse">
<stop offset="0.4" stop-opacity="0"/>
<stop offset="0.6" stop-color="white"/>
<stop offset="1" stop-opacity="0"/>
</linearGradient>
<linearGradient id="paint10_linear_2648_4247" x1="580.53" y1="0" x2="580.53" y2="137.837" gradientUnits="userSpaceOnUse">
<stop offset="0.4" stop-opacity="0"/>
<stop offset="0.6" stop-color="white"/>
<stop offset="1" stop-opacity="0"/>
</linearGradient>
<linearGradient id="paint11_linear_2648_4247" x1="580.53" y1="0" x2="580.53" y2="137.837" gradientUnits="userSpaceOnUse">
<stop offset="0.4" stop-opacity="0"/>
<stop offset="0.6" stop-color="white"/>
<stop offset="1" stop-opacity="0"/>
</linearGradient>
<linearGradient id="paint12_linear_2648_4247" x1="580.53" y1="0" x2="580.53" y2="137.837" gradientUnits="userSpaceOnUse">
<stop offset="0.4" stop-opacity="0"/>
<stop offset="0.6" stop-color="white"/>
<stop offset="1" stop-opacity="0"/>
</linearGradient>
<linearGradient id="paint13_linear_2648_4247" x1="580.53" y1="0" x2="580.53" y2="137.837" gradientUnits="userSpaceOnUse">
<stop offset="0.4" stop-opacity="0"/>
<stop offset="0.6" stop-color="white"/>
<stop offset="1" stop-opacity="0"/>
</linearGradient>
<linearGradient id="paint14_linear_2648_4247" x1="580.53" y1="0" x2="580.53" y2="137.837" gradientUnits="userSpaceOnUse">
<stop offset="0.4" stop-opacity="0"/>
<stop offset="0.6" stop-color="white"/>
<stop offset="1" stop-opacity="0"/>
</linearGradient>
<linearGradient id="paint15_linear_2648_4247" x1="580.53" y1="0" x2="580.53" y2="137.837" gradientUnits="userSpaceOnUse">
<stop offset="0.4" stop-opacity="0"/>
<stop offset="0.6" stop-color="white"/>
<stop offset="1" stop-opacity="0"/>
</linearGradient>
<clipPath id="clip0_2648_4247">
<rect width="1161.06" height="130.283" fill="white" transform="matrix(1 0 0 -1 0 122)"/>
</clipPath>
<clipPath id="clip1_2648_4247">
<rect width="1161.06" height="130.283" fill="white" transform="matrix(1 0 0 -1 0 122)"/>
</clipPath>
<clipPath id="clip2_2648_4247">
<rect width="1161.06" height="130.283" fill="white" transform="matrix(1 0 0 -1 0 122)"/>
</clipPath>
<clipPath id="clip3_2648_4247">
<rect width="1161.06" height="130.283" fill="white" transform="matrix(1 0 0 -1 0 122)"/>
</clipPath>
<clipPath id="clip4_2648_4247">
<rect width="1161.06" height="130.283" fill="white" transform="matrix(1 0 0 -1 0 122)"/>
</clipPath>
<clipPath id="clip5_2648_4247">
<rect width="1161.06" height="130.283" fill="white" transform="matrix(1 0 0 -1 0 122)"/>
</clipPath>
<clipPath id="clip6_2648_4247">
<rect width="1161.06" height="130.283" fill="white" transform="matrix(1 0 0 -1 0 122)"/>
</clipPath>
<clipPath id="clip7_2648_4247">
<rect width="1161.06" height="130.283" fill="white" transform="matrix(1 0 0 -1 0 122)"/>
</clipPath>
<clipPath id="clip8_2648_4247">
<rect width="1161.06" height="130.283" fill="white" transform="matrix(1 0 0 -1 0 122)"/>
</clipPath>
<clipPath id="clip9_2648_4247">
<rect width="1161.06" height="130.283" fill="white" transform="matrix(1 0 0 -1 0 122)"/>
</clipPath>
<clipPath id="clip10_2648_4247">
<rect width="1161.06" height="130.283" fill="white" transform="matrix(1 0 0 -1 0 122)"/>
</clipPath>
<clipPath id="clip11_2648_4247">
<rect width="1161.06" height="130.283" fill="white" transform="matrix(1 0 0 -1 0 122)"/>
</clipPath>
<clipPath id="clip12_2648_4247">
<rect width="1161.06" height="130.283" fill="white" transform="matrix(1 0 0 -1 0 122)"/>
</clipPath>
<clipPath id="clip13_2648_4247">
<rect width="1161.06" height="130.283" fill="white" transform="matrix(1 0 0 -1 0 122)"/>
</clipPath>
<clipPath id="clip14_2648_4247">
<rect width="1161.06" height="130.283" fill="white" transform="matrix(1 0 0 -1 0 122)"/>
</clipPath>
<clipPath id="clip15_2648_4247">
<rect width="1161.06" height="130.283" fill="white" transform="matrix(1 0 0 -1 0 122)"/>
</clipPath>
</defs>
</svg>
